#!OML:ASF F:\VICON\USERDATA\INSTALL\rory3\rory3.ASF
:FULLY-SPECIFIED
:DEGREES
1
root 1.5828 17.7359 -29.0692 -4.334 -5.31647 -1.14488
lowerback 16.7855 -0.635141 -2.82247
upperback -1.87675 -1.09337 3.02308
thorax -11.4327 -0.213999 5.23845
lowerneck -7.0072 -9.49502 -8.21338
upperneck 13.3022 -12.0635 1.29162
head 5.75536 -6.20784 0.807302
rclavicle -8.59744e-015 1.43125e-014
rhumerus -25.7345 -42.5664 -55.0444
rradius 89.7085
rwrist -83.5746
rhand -30.1675 -4.64245
rfingers 7.12502
rthumb -3.47919 -34.5938
lclavicle -8.59744e-015 1.43125e-014
lhumerus -44.2484 -3.77347 80.4882
lradius 59.5872
lwrist 6.81694
lhand -9.60538 52.5825
lfingers 7.12502
lthumb 16.3636 81.9122
rfemur -5.9539 4.52782 24.9011
rtibia 31.235
rfoot 0 0
rtoes 0
lfemur -4.30844 -10.7822 -15.2943
ltibia 27.0842
lfoot 0 0
ltoes 0
2
root 1.5697 17.7315 -29.066 -4.43399 -5.32523 -0.711984
lowerback 16.1887 -0.385559 -2.88963
upperback -0.841363 -0.803979 2.70348
thorax -9.96195 -0.147512 4.79217
lowerneck -9.98097 -9.96923 -7.30023
upperneck 13.7693 -12.5497 1.06094
head 6.35008 -6.38234 0.39098
rclavicle 1.37161e-014 3.18055e-015
rhumerus -24.0779 -44.3985 -56.5613
rradius 89.783
rwrist -83.4306
rhand -29.9317 -5.32093
rfingers 7.12502
rthumb -3.25153 -35.2759
lclavicle 1.37161e-014 3.18055e-015
lhumerus -41.4563 -4.46397 80.4563
lradius 59.2311
lwrist 6.96044
lhand -9.65715 52.9898
lfingers 7.12502
lthumb 16.3138 82.3236
rfemur -5.98479 4.33924 24.4264
rtibia 31.4907
rfoot 0 0
rtoes 0
lfemur -4.06767 -10.9025 -15.7923
ltibia 26.861
lfoot 0 0
ltoes 0
3
root 1.55402 17.731 -29.0655 -4.49191 -5.49401 -0.633503
lowerback 15.4394 -0.58449 -3.14122
upperback -0.928876 -1.08329 2.90064
thorax -9.59359 -0.271997 5.19617
lowerneck -7.59919 -9.6171 -8.08406
upperneck 12.6637 -12.1974 1.44243
head 5.65999 -6.2424 0.809625
rclavicle 7.11587e-015 -1.19271e-014
rhumerus -23.9194 -43.2249 -57.1635
rradius 89.6897
rwrist -83.4721
rhand -30.0279 -4.07744
rfingers 7.12502
rthumb -3.34438 -34.031
lclavicle 7.11587e-015 -1.19271e-014
lhumerus -41.8399 -3.74216 80.531
lradius 59.2159
lwrist 6.94913
lhand -9.62665 53.0678
lfingers 7.12502
lthumb 16.3431 82.3992
rfemur -5.94541 4.36443 24.3938
rtibia 31.5241
rfoot 0 0
rtoes 0
lfemur -3.98134 -10.9669 -15.8583
ltibia 26.8825
lfoot 0 0
ltoes 0
4
root 1.53646 17.7307 -29.0713 -4.48951 -5.58386 -0.713794
lowerback 15.2953 -0.688731 -3.13428
upperback -1.08264 -1.20844 2.99568
thorax -9.66516 -0.324513 5.32518
lowerneck -6.35828 -9.4353 -8.21783
upperneck 11.9818 -12.0451 1.51655
head 5.24495 -6.17709 0.946676
rclavicle 6.80682e-015 -8.74653e-015
rhumerus -23.9247 -42.8126 -57.6431
rradius 89.7023
rwrist -83.3421
rhand -29.9937 -3.77897
rfingers 7.12502
rthumb -3.31133 -33.733
lclavicle 6.80682e-015 -8.74653e-015
lhumerus -41.9511 -3.57999 80.5668
lradius 59.1791
lwrist 7.13851
lhand -9.6793 52.8572
lfingers 7.12502
lthumb 16.2925 82.1927
rfemur -5.96154 4.49033 24.5615
rtibia 31.5586
rfoot 0 0
rtoes 0
lfemur -3.97449 -10.8999 -15.6993
ltibia 26.8779
lfoot 0 0
ltoes 0
5
root 1.5207 17.7335 -29.0824 -4.47844 -5.61252 -0.866092
lowerback 16.1862 -0.558629 -2.91219
upperback -1.35824 -1.00831 2.97741
thorax -10.5106 -0.209083 5.17461
lowerneck -7.05339 -9.56134 -7.65045
upperneck 12.4611 -12.1775 1.11755
head 5.45579 -6.23954 0.684515
rclavicle -2.55935e-015 7.95139e-016
rhumerus -24.4016 -43.0483 -57.6474
rradius 89.833
rwrist -83.4535
rhand -29.7575 -3.78399
rfingers 7.12502
rthumb -3.08322 -33.7414
lclavicle -2.55935e-015 7.95139e-016
lhumerus -41.7463 -4.17256 80.7326
lradius 59.2021
lwrist 7.32102
lhand -9.733 52.5207
lfingers 7.12502
lthumb 16.2407 81.8604
rfemur -5.98791 4.50507 24.7939
rtibia 31.5314
rfoot 0 0
rtoes 0
lfemur -4.05983 -10.7589 -15.439
ltibia 26.9145
lfoot 0 0
ltoes 0
6
root 1.50729 17.7361 -29.0855 -4.48504 -5.56418 -0.790261
lowerback 15.7216 -0.784248 -3.00515
upperback -1.29769 -1.3107 3.07059
thorax -10.138 -0.35839 5.383
lowerneck -6.24866 -9.27935 -7.98706
upperneck 11.9639 -11.8438 1.31178
head 5.1846 -6.08285 0.874397
rclavicle -1.48467e-015 -4.77083e-015
rhumerus -23.9658 -42.4252 -58.4567
rradius 89.885
rwrist -83.5281
rhand -29.1112 -4.27742
rfingers 7.12502
rthumb -2.45911 -34.243
lclavicle -1.48467e-015 -4.77083e-015
lhumerus -41.6928 -3.62311 80.6983
lradius 59.2987
lwrist 7.19169
lhand -10.1328 50.8797
lfingers 7.12502
lthumb 15.8558 80.2505
rfemur -5.98266 4.39373 24.7348
rtibia 31.5025
rfoot 0 0
rtoes 0
lfemur -4.09295 -10.7323 -15.4681
ltibia 26.9345
lfoot 0 0
ltoes 0
7
root 1.49456 17.7352 -29.0824 -4.54386 -5.53878 -0.646941
lowerback 15.0556 -1.0924 -3.32472
upperback -1.47505 -1.75431 3.22393
thorax -9.88733 -0.554104 5.81525
lowerneck -3.81702 -8.75063 -8.60532
upperneck 10.7998 -11.3208 1.67789
head 4.4547 -5.84188 1.26304
rclavicle -5.28022e-015 7.95139e-015
rhumerus -24.1173 -41.3673 -58.8815
rradius 90.0144
rwrist -83.5069
rhand -29.6522 -4.06429
rfingers 7.12502
rthumb -2.98156 -34.0232
lclavicle -5.28022e-015 7.95139e-015
lhumerus -42.4322 -2.88207 80.7299
lradius 59.4857
lwrist 7.06105
lhand -11.4841 47.3319
lfingers 7.12502
lthumb 14.5541 76.8014
rfemur -5.87163 4.38733 24.6263
rtibia 31.4582
rfoot 0 0
rtoes 0
lfemur -4.00622 -10.7928 -15.6174
ltibia 26.926
lfoot 0 0
ltoes 0
8
root 1.47892 17.7355 -29.0811 -4.60309 -5.58088 -0.514922
lowerback 16.123 -0.963171 -3.46035
upperback -1.66174 -1.61976 3.31335
thorax -10.7242 -0.442545 6.02324
lowerneck -5.60124 -8.85347 -8.36923
upperneck 11.8359 -11.2665 1.16312
head 5.02528 -5.83148 0.966534
rclavicle -1.16786e-015 -2.14687e-014
rhumerus -24.0126 -41.5362 -59.0385
rradius 90.0809
rwrist -83.4831
rhand -29.4094 -4.76983
rfingers 7.12502
rthumb -2.74709 -34.7319
lclavicle -1.16786e-015 -2.14687e-014
lhumerus -42.0653 -3.07101 81.1673
lradius 59.4513
lwrist 7.21535
lhand -10.2958 51.6086
lfingers 7.12502
lthumb 15.6988 80.9917
rfemur -5.78553 4.37118 24.5257
rtibia 31.4404
rfoot 0 0
rtoes 0
lfemur -3.93532 -10.8468 -15.7371
ltibia 26.9587
lfoot 0 0
ltoes 0
9
root 1.46263 17.7396 -29.0855 -4.6003 -5.75393 -0.521165
lowerback 15.8664 -0.741673 -3.30326
upperback -1.27882 -1.30327 3.18008
thorax -10.1936 -0.332818 5.67983
lowerneck -6.56457 -9.05363 -7.71075
upperneck 11.8479 -11.5137 1.10478
head 5.15665 -5.91821 0.786398
rclavicle 6.37664e-015 2.8625e-014
rhumerus -23.5621 -42.4167 -59.7506
rradius 90.1388
rwrist -83.5816
rhand -29.2096 -4.89477
rfingers 7.12502
rthumb -2.5541 -34.8592
lclavicle 6.37664e-015 2.8625e-014
lhumerus -40.786 -3.80353 81.2594
lradius 59.2907
lwrist 7.43725
lhand -11.4768 45.8396
lfingers 7.12502
lthumb 14.5611 75.3085
rfemur -5.81174 4.35326 24.5717
rtibia 31.4334
rfoot 0 0
rtoes 0
lfemur -3.92019 -10.8 -15.6733
ltibia 27.0101
lfoot 0 0
ltoes 0
10
root 1.44625 17.7346 -29.0914 -4.52493 -5.92805 -0.803721
lowerback 15.8904 -0.557281 -2.98232
upperback -1.11292 -0.994532 3.20251
thorax -10.0644 -0.209852 5.44073
lowerneck -7.52149 -9.19131 -7.11805
upperneck 12.0858 -11.6708 0.922741
head 5.34931 -5.97369 0.578849
rclavicle 1.27409e-014 -1.59028e-014
rhumerus -23.4452 -43.0174 -60.0822
rradius 90.1498
rwrist -83.6519
rhand -29.2 -4.7646
rfingers 7.12502
rthumb -2.5449 -34.7292
lclavicle 1.27409e-014 -1.59028e-014
lhumerus -39.8716 -4.47137 81.4738
lradius 59.1755
lwrist 7.46283
lhand -11.3257 46.4115
lfingers 7.12502
lthumb 14.7067 75.8698
rfemur -5.91023 4.43893 24.9601
rtibia 31.4447
rfoot 0 0
rtoes 0
lfemur -4.0297 -10.677 -15.2534
ltibia 27.1083
lfoot 0 0
ltoes 0
11
root 1.43197 17.731 -29.0984 -4.51663 -5.85796 -0.880892
lowerback 16.0143 -0.703062 -3.04648
upperback -1.32823 -1.187 3.34912
thorax -10.3496 -0.279664 5.69987
lowerneck -6.96586 -8.93356 -7.15439
upperneck 11.9627 -11.3568 0.88688
head 5.20607 -5.82891 0.629837
rclavicle 1.37783e-014 1.27222e-014
rhumerus -23.6254 -42.5262 -60.3283
rradius 90.187
rwrist -83.5844
rhand -29.119 -4.71907
rfingers 7.12502
rthumb -2.46665 -34.6846
lclavicle 1.37783e-014 1.27222e-014
lhumerus -40.1352 -4.29287 81.6235
lradius 59.2829
lwrist 7.35802
lhand -11.0945 46.7872
lfingers 7.12502
lthumb 14.9294 76.2291
rfemur -5.95018 4.46197 25.1186
rtibia 31.4668
rfoot 0 0
rtoes 0
lfemur -4.11752 -10.6658 -15.0838
ltibia 27.1647
lfoot 0 0
ltoes 0
12
root 1.4176 17.7285 -29.1079 -4.52978 -5.7147 -0.815103
lowerback 16.126 -0.652477 -2.97208
upperback -1.1672 -1.12161 3.21476
thorax -10.2454 -0.263656 5.4904
lowerneck -7.9054 -9.01475 -6.53969
upperneck 12.2635 -11.4593 0.768744
head 5.41623 -5.85338 0.442237
rclavicle 2.37493e-014 -3.65764e-014
rhumerus -23.337 -43.2071 -61.0193
rradius 90.2953
rwrist -83.4725
rhand -28.9499 -4.57658
rfingers 7.12502
rthumb -2.30329 -34.5439
lclavicle 2.37493e-014 -3.65764e-014
lhumerus -39.3637 -4.95381 81.7365
lradius 59.2387
lwrist 7.57823
lhand -11.2767 48.1587
lfingers 7.12502
lthumb 14.7539 77.6136
rfemur -5.984 4.40939 25.1064
rtibia 31.5383
rfoot 0 0
rtoes 0
lfemur -4.16152 -10.7928 -15.1102
ltibia 27.1643
lfoot 0 0
ltoes 0
